<?xml version="1.0" encoding="UTF-8"?>
<svg xmlns="http://www.w3.org/2000/svg" version="1.1" viewBox="0 0 512 512">
  <defs>
    <style>
      .cls-1 {
        fill: #fff;
      }

      .cls-2 {
        fill: #9a0052;
      }
    </style>
  </defs>
  <!-- Generator: Adobe Illustrator 28.7.1, SVG Export Plug-In . SVG Version: 1.2.0 Build 142)  -->
  <g>
    <g id="Calque_1">
      <circle class="cls-1" cx="256" cy="256" r="237"/>
      <path class="cls-2" d="M144,159c0-9.6,7.7-17.3,17.3-17.3h156c9.6,0,17.3,7.7,17.3,17.3v17.3h27.7c23,0,41.6,18.6,41.6,41.6v55.3c0,16.5-9.7,31.4-24.7,38l-44.6,19.8v18.6c0,19.1-15.5,34.7-34.7,34.7h-121.3c-19.1,0-34.7-15.5-34.7-34.7v-190.7ZM334.7,293.1l30.5-13.6c2.5-1.1,4.1-3.6,4.1-6.3v-55.3c0-3.8-3.1-6.9-6.9-6.9h-27.7v82.2ZM213.3,202.3c0-4.8-3.9-8.7-8.7-8.7s-8.7,3.9-8.7,8.7v121.3c0,4.8,3.9,8.7,8.7,8.7s8.7-3.9,8.7-8.7v-121.3ZM248,202.3c0-4.8-3.9-8.7-8.7-8.7s-8.7,3.9-8.7,8.7v121.3c0,4.8,3.9,8.7,8.7,8.7s8.7-3.9,8.7-8.7v-121.3ZM282.7,202.3c0-4.8-3.9-8.7-8.7-8.7s-8.7,3.9-8.7,8.7v121.3c0,4.8,3.9,8.7,8.7,8.7s8.7-3.9,8.7-8.7v-121.3Z"/>
    </g>
  </g>
</svg>