<?xml version="1.0" encoding="UTF-8"?>
<svg xmlns="http://www.w3.org/2000/svg" version="1.1" viewBox="0 0 1500 1500">
  <defs>
    <style>
      .cls-1, .cls-2 {
        fill: none;
      }

      .cls-3 {
        fill: #bffa91;
      }

      .cls-4 {
        fill: #caf1fc;
      }

      .cls-2 {
        stroke: #000;
        stroke-miterlimit: 10;
        stroke-width: 36px;
      }

      .cls-5 {
        fill: #fe5060;
      }

      .cls-6 {
        fill: #ffe773;
      }
    </style>
  </defs>
  <!-- Generator: Adobe Illustrator 28.7.1, SVG Export Plug-In . SVG Version: 1.2.0 Build 142)  -->
  <g>
    <g id="Calque_1">
      <g id="Calque_1-2" data-name="Calque_1">
        <path class="cls-6" d="M479.25,471.05s62.51,139.71,86.7,193.7c-24.61,10.14-51.58,15.73-79.85,15.73-115.85,0-209.76-93.91-209.76-209.76s93.91-209.76,209.76-209.76,209.76,93.91,209.76,209.76l-216.61.33h0Z"/>
        <g>
          <g id="Calque_2">
            <circle class="cls-3" cx="1084.68" cy="309.25" r="85.88"/>
            <path class="cls-5" d="M611.31,624.32s63.03-33.4,116.76-25.1c75.04,11.58,217.17,35.03,217.17,35.03l159.96-33.86-249.87,312.92-244.03-288.98h.01Z"/>
            <path class="cls-4" d="M1020.71,471.48h192.45l-101.53,130.32-126.53,29.55-257.02-32.13s-37.45-7.69-116.76,25.1l-120.99-152.08,530.38-.76h0Z"/>
          </g>
          <g id="Calque_1-2">
            <g>
              <line class="cls-1" x1="669.03" y1="1285.9" x2="1031.25" y2="1285.9"/>
              <g>
                <line class="cls-2" x1="686.01" y1="1285.9" x2="1014.28" y2="1285.9"/>
                <path d="M686.9,1303.76c-9.87,0-17.87-8-17.87-17.87s8-17.87,17.87-17.87,17.87,8,17.87,17.87-8,17.87-17.87,17.87Z"/>
                <path d="M1013.38,1303.76c9.87,0,17.87-8,17.87-17.87s-8-17.87-17.87-17.87-17.87,8-17.87,17.87,8,17.87,17.87,17.87Z"/>
              </g>
            </g>
            <polyline class="cls-2" points="850.14 1285.9 850.14 920.03 484.88 469.22"/>
            <g>
              <line class="cls-1" x1="466.68" y1="469.22" x2="1010.52" y2="469.22"/>
              <g>
                <line class="cls-2" x1="483.65" y1="469.22" x2="1010.52" y2="469.22"/>
                <path d="M484.55,487.09c-9.87,0-17.87-8-17.87-17.87s8-17.87,17.87-17.87,17.87,8,17.87,17.87-8,17.87-17.87,17.87Z"/>
              </g>
            </g>
            <g>
              <line class="cls-1" x1="1051.24" y1="383.68" x2="912.45" y2="686.48"/>
              <g>
                <line class="cls-2" x1="1051.24" y1="383.68" x2="919.53" y2="671.05"/>
                <path d="M903.66,662.8c-4.11,8.97-.17,19.58,8.8,23.69s19.58.17,23.69-8.8.17-19.58-8.8-23.69-19.58-.17-23.69,8.8Z"/>
              </g>
            </g>
            <line class="cls-2" x1="855.01" y1="912.08" x2="1214.37" y2="469.22"/>
            <g>
              <line class="cls-1" x1="1110.33" y1="469.22" x2="1232.59" y2="469.22"/>
              <g>
                <line class="cls-2" x1="1127.31" y1="469.22" x2="1215.61" y2="469.22"/>
                <path d="M1128.2,487.09c-9.87,0-17.87-8-17.87-17.87s8-17.87,17.87-17.87,17.87,8,17.87,17.87-8,17.87-17.87,17.87Z"/>
                <path d="M1214.72,487.09c9.87,0,17.87-8,17.87-17.87s-8-17.87-17.87-17.87-17.87,8-17.87,17.87,8,17.87,17.87,17.87Z"/>
              </g>
            </g>
            <g>
              <path class="cls-2" d="M556.45,668.35c-22.45,8.06-46.64,12.46-71.87,12.46-117.37,0-212.52-95.15-212.52-212.52s95.15-212.51,212.52-212.51,212.52,95.15,212.52,212.51"/>
              <path d="M548.97,651.99c9.17-3.65,19.56.82,23.21,9.98s-.82,19.56-9.98,23.21-19.56-.82-23.21-9.98.82-19.56,9.98-23.21Z"/>
            </g>
            <g>
              <path class="cls-2" d="M1048.57,386c36.16,16.4,80.04,5.64,104.14-27.81,27.49-38.14,18.85-91.34-19.29-118.83s-91.34-18.85-118.83,19.29c-7.27,10.08-12.61,23.71-14.35,32.65-1.1,5.63-2.24,11.79-2.36,20"/>
              <path d="M1040.52,401.86c-8.56-4.9-11.54-15.82-6.64-24.38s15.82-11.54,24.38-6.64,11.54,15.82,6.64,24.38-15.82,11.54-24.38,6.64Z"/>
              <path d="M980.08,311.45c.58,9.85,9.04,17.37,18.89,16.79,9.85-.58,17.37-9.04,16.79-18.89-.58-9.85-9.04-17.36-18.89-16.78-9.85.58-17.37,9.04-16.79,18.89h0Z"/>
            </g>
            <g>
              <path class="cls-2" d="M698.78,599.06c65.49-7.56,107.07-4.42,205.2,28.26,116.2,38.7,180.45-4.58,204.67-27.67"/>
              <path d="M1121.22,612.26c6.62-7.31,6.07-18.61-1.24-25.24-7.31-6.62-18.61-6.07-25.24,1.24-6.62,7.31-6.07,18.61,1.24,25.24,7.31,6.62,18.61,6.07,25.24-1.24Z"/>
            </g>
          </g>
        </g>
      </g>
    </g>
  </g>
</svg>