<svg width="19" height="19" viewBox="0 0 19 19" fill="none" xmlns="http://www.w3.org/2000/svg">
<g clip-path="url(#clip0_3_91)">
<path d="M15.3772 16.1142L12.687 12.7816M12.687 12.7816C13.2404 12.3077 13.6978 11.7261 14.0331 11.07C14.3683 10.414 14.5748 9.69637 14.6408 8.95814C14.7067 8.21991 14.6309 7.47553 14.4175 6.7675C14.2042 6.05946 13.8575 5.40164 13.3974 4.83159C12.9372 4.26154 12.3725 3.79043 11.7356 3.44515C11.0986 3.09987 10.4019 2.88719 9.68511 2.81925C8.96836 2.75131 8.24563 2.82944 7.55819 3.04917C6.87076 3.26891 6.23207 3.62596 5.67861 4.09992C4.56083 5.05713 3.85803 6.43248 3.72481 7.9234C3.59158 9.41432 4.03885 10.8987 4.96822 12.0499C5.89759 13.2012 7.23292 13.9251 8.68047 14.0623C10.128 14.1995 11.5692 13.7388 12.687 12.7816Z" stroke="#6B6B6B" stroke-width="2.5" stroke-linecap="round" stroke-linejoin="round"/>
</g>
<defs>
<clipPath id="clip0_3_91">
<rect width="16.4469" height="16.9313" fill="white" transform="matrix(0.995537 0.0943685 -0.089002 0.996031 2.36893 0)"/>
</clipPath>
</defs>
</svg>
